:SAMPLES-PER-SECOND 30
:FULLY-SPECIFIED
:DEGREES
112
root  -59.4621 40.4454 11.485 178.153 -50.6695 178.265
RightUpLeg  -7.87825 -8.00345 -9.22954
RightLeg  6.44989 5.37184 -0.999136
RightFoot  -4.20378 -0.446272 6.69211
RightToes  5.47152e-009 0 -3.6325e-017
Spine  4.41354 -0.672293 -0.081287
Spine1  13.5671 0.211056 -3.56768
HEad  5.8133 -10.4139 3.63138
LeftShoulder1  0.413843 2.15728 -24.4854
LeftArm  -9.34332 -1.22142 -41.9175
LeftForeArm  49.2365 -78.3617 -73.0612
LeftHand  -0.0121048 5.10162 -2.16611
RightShoulder  -0.360259 -4.7116 22.8376
RightArm  -20.9508 4.08706 38.9647
RightForeArm  55.0058 78.38 91.0642
RightHand  -0.00696975 -2.25203 0.203778
LeftUpLeg  -2.88803 9.02509 5.27774
LeftLeg  9.30958 -5.97074 -1.72878
LeftFoot  -3.56446 0.169888 -2.31351
LeftToes  -4.29285e-010 1.49941e-010 2.15559e-012
113
root  -59.6523 40.4959 11.9149 177.758 -46.2491 178.78
RightUpLeg  -8.19729 -11.6722 -9.31079
RightLeg  7.70337 -4.41462 -0.130414
RightFoot  -5.24368 -0.336281 5.64129
RightToes  5.47152e-009 0 -3.6325e-017
Spine  4.34603 -0.707892 0.54192
Spine1  13.4406 0.328893 -4.11034
HEad  6.02346 -8.97912 2.4902
LeftShoulder1  0.30642 2.53328 -25.3471
LeftArm  -8.58649 -0.521612 -40.7752
LeftForeArm  49.9415 -78.407 -74.3004
LeftHand  -0.00576458 4.545 -1.78019
RightShoulder  -0.428927 -4.89785 23.8369
RightArm  -21.2899 0.244284 39.6183
RightForeArm  67.3463 78.1935 101.852
RightHand  -0.0113235 -2.364 0.0282262
LeftUpLeg  -2.34192 9.44487 5.32406
LeftLeg  9.31308 -2.08021 -1.52137
LeftFoot  -3.91295 0.139509 -1.82431
LeftToes  -4.29285e-010 1.49941e-010 2.15559e-012
114
root  -59.8328 40.5553 12.258 177.751 -41.6227 178.702
RightUpLeg  -8.84476 -17.5454 -9.00112
RightLeg  10.2004 -7.62483 0.308667
RightFoot  -5.60358 -0.240171 4.04111
RightToes  5.47152e-009 0 -3.6325e-017
Spine  4.15388 -0.503307 0.322209
Spine1  13.3826 0.459158 -3.86286
HEad  6.14379 -7.902 1.70457
LeftShoulder1  0.236911 2.77252 -26.1482
LeftArm  -9.06246 1.29792 -41.0108
LeftForeArm  54.666 -78.6302 -77.9979
LeftHand  -0.000625009 4.10568 -2.35607
RightShoulder  -0.552518 -5.24306 25.0004
RightArm  -20.9875 -2.91066 39.388
RightForeArm  75.6889 77.6235 110.8
RightHand  -0.0387206 -2.81023 -1.0834
LeftUpLeg  -1.23913 9.48548 4.959
LeftLeg  8.45911 2.53874 -1.08971
LeftFoot  -3.72214 0.122566 -1.54512
LeftToes  -4.29285e-010 1.49941e-010 2.15559e-012
115
root  -59.995 40.5911 12.5506 177.782 -37.2108 178.539
RightUpLeg  -9.60295 -24.7178 -8.06122
RightLeg  13.0676 -6.87663 -0.412384
RightFoot  -5.84774 -0.176706 2.84744
RightToes  5.47152e-009 0 -3.6325e-017
Spine  4.12591 -0.572356 -0.21817
Spine1  13.0686 0.214536 -3.40008
HEad  5.8526 -5.86012 1.39457
LeftShoulder1  0.159706 3.01301 -26.4783
LeftArm  -10.0125 3.16386 -41.1853
LeftForeArm  59.9213 -78.8259 -81.5264
LeftHand  -0.00852175 4.78404 -4.03211
RightShoulder  -0.602538 -5.35252 25.8776
RightArm  -20.7119 -6.17012 39.0146
RightForeArm  83.3717 76.9378 118.055
RightHand  -0.0206792 -2.51743 -0.289187
LeftUpLeg  -0.2 9.35598 4.44933
LeftLeg  7.59643 7.01402 -0.596666
LeftFoot  -3.68497 0.149636 -1.95236
LeftToes  -4.29285e-010 1.49941e-010 2.15559e-012
116
root  -60.1649 40.611 12.7606 176.968 -32.6891 178.687
RightUpLeg  -9.33327 -31.7556 -7.11079
RightLeg  15.6889 -4.99334 -1.28285
RightFoot  -6.45579 -0.0929816 1.13675
RightToes  5.47152e-009 0 -3.6325e-017
Spine  4.42681 -0.731639 -0.273465
Spine1  13.1882 -0.0768534 -3.14875
HEad  5.95278 -4.34886 1.34344
LeftShoulder1  0.0434577 3.37468 -27.2104
LeftArm  -10.2125 4.6272 -41.1995
LeftForeArm  64.2912 -78.9487 -84.73
LeftHand  -0.0120322 4.89026 -4.59866
RightShoulder  -0.636678 -5.41662 26.5234
RightArm  -20.3677 -8.01085 38.5577
RightForeArm  86.1734 76.6659 120.346
RightHand  -0.0301391 -2.64991 -0.693084
LeftUpLeg  1.37034 9.75309 4.53712
LeftLeg  7.34147 10.8138 -0.418627
LeftFoot  -3.82918 0.122074 -1.5136
LeftToes  -4.29285e-010 1.49941e-010 2.15559e-012
117
root  -60.3122 40.6027 12.8999 176.747 -27.9497 178.471
RightUpLeg  -9.36366 -35.7772 -6.71168
RightLeg  18.3867 -4.63735 -1.9761
RightFoot  -7.33732 -0.0361665 -0.379299
RightToes  5.47152e-009 0 -3.6325e-017
Spine  4.21229 -0.86956 0.259536
Spine1  13.412 0.0393106 -4.08067
HEad  5.95154 -3.2642 1.39508
LeftShoulder1  0.0339986 3.40033 -26.8887
LeftArm  -10.691 6.08965 -41.9127
LeftForeArm  67.0227 -79.016 -86.4767
LeftHand  -0.00570463 4.62623 -3.35938
RightShoulder  -0.740351 -5.66128 27.664
RightArm  -20.3649 -9.85678 38.0497
RightForeArm  90.1076 76.1979 123.739
RightHand  -0.0199279 -2.33265 -0.263037
LeftUpLeg  2.54002 9.85369 4.23855
LeftLeg  7.09225 15.2497 -0.120512
LeftFoot  -4.09791 0.139562 -1.77974
LeftToes  -4.29285e-010 1.49941e-010 2.15559e-012
118
root  -60.4461 40.6196 12.917 177.509 -24.0961 177.852
RightUpLeg  -9.39675 -39.2782 -6.87944
RightLeg  20.1936 -4.25882 -1.94631
RightFoot  -7.92463 -0.00235374 -1.71931
RightToes  5.47152e-009 0 -3.6325e-017
Spine  2.4608 -1.07171 -0.65476
Spine1  14.2057 -0.512293 -2.88982
HEad  6.2149 -3.08311 0.925343
LeftShoulder1  0.00907779 3.47715 -27.7859
LeftArm  -10.8732 6.78595 -41.8202
LeftForeArm  65.1582 -78.9792 -84.9869
LeftHand  0.00337345 4.42826 -3.76363
RightShoulder  -0.682743 -5.53074 26.9703
RightArm  -20.7243 -12.2377 38.5214
RightForeArm  94.7796 75.6075 127.482
RightHand  -0.0175927 -2.89736 -0.125633
LeftUpLeg  2.98965 9.53359 3.36906
LeftLeg  6.29952 19.3627 -0.0662118
LeftFoot  -3.92964 0.141161 -1.80458
LeftToes  -4.29285e-010 1.49941e-010 2.15559e-012
119
root  -60.5075 40.6197 12.8957 177.479 -19.8426 177.692
RightUpLeg  -8.38909 -41.6722 -6.83705
RightLeg  20.8779 -4.92641 -2.28601
RightFoot  -8.37404 0.0159363 -2.78147
RightToes  5.47152e-009 0 -3.6325e-017
Spine  2.27381 -1.14421 -0.172074
Spine1  13.7884 -0.519846 -3.13062
HEad  6.35527 -3.29076 0.723332
LeftShoulder1  0.0524974 3.3507 -28.0761
LeftArm  -10.78 7.76163 -42.1613
LeftForeArm  65.6649 -79.0085 -84.6247
LeftHand  -0.00543821 4.73051 -4.11252
RightShoulder  -0.768765 -5.74304 27.5981
RightArm  -20.4017 -13.5006 37.5253
RightForeArm  96.0393 75.3335 128.857
RightHand  -0.0194654 -3.26068 0.0629144
LeftUpLeg  3.87918 9.4237 2.98397
LeftLeg  5.92911 23.8882 0.314879
LeftFoot  -3.7267 0.144338 -1.86081
LeftToes  -4.29285e-010 1.49941e-010 2.15559e-012
120
root  -60.4713 40.6076 12.8027 177.111 -15.4783 177.819
RightUpLeg  -6.10969 -43.3459 -6.62011
RightLeg  19.5654 -6.3163 -2.78066
RightFoot  -8.10976 0.0217079 -2.76797
RightToes  5.47152e-009 0 -3.6325e-017
Spine  2.29738 -1.18331 -0.304082
Spine1  13.6768 -0.886528 -2.13151
HEad  6.37332 -3.39096 0.43276
LeftShoulder1  0.0398682 3.39245 -29.1885
LeftArm  -10.7323 8.08525 -41.4835
LeftForeArm  64.4973 -79.002 -82.6592
LeftHand  -0.00818188 4.78568 -5.11392
RightShoulder  -0.560486 -5.20583 26.1682
RightArm  -21.1725 -15.3778 38.9036
RightForeArm  99.9086 75.1202 130.436
RightHand  0.0217598 -3.60727 2.72014
LeftUpLeg  4.77471 10.0322 3.49737
LeftLeg  6.41886 27.3414 0.431421
LeftFoot  -3.84948 0.14049 -1.81591
LeftToes  -4.29285e-010 1.49941e-010 2.15559e-012
121
root  -60.3949 40.5795 12.6688 177.208 -10.8246 177.85
RightUpLeg  -3.60363 -40.1837 -6.21596
RightLeg  16.173 -9.22879 -2.24793
RightFoot  -6.91925 0.0363834 -2.06408
RightToes  5.47152e-009 0 -3.6325e-017
Spine  1.42003 -1.4281 0.20053
Spine1  14.6783 -0.895711 -2.94828
HEad  5.3586 -3.16099 1.43481
LeftShoulder1  -0.0186838 3.55734 -27.9653
LeftArm  -11.6917 8.76101 -42.5178
LeftForeArm  66.9966 -79.0813 -84.0041
LeftHand  -0.055496 5.61406 -5.99966
RightShoulder  -0.748402 -5.65132 28.1948
RightArm  -20.4518 -14.0503 38.0879
RightForeArm  99.6295 75.4007 129.29
RightHand  0.000982348 -4.05412 2.29454
LeftUpLeg  5.33531 10.4088 3.7402
LeftLeg  6.8891 31.1799 0.782646
LeftFoot  -4.12099 0.19 -2.61
LeftToes  -4.29285e-010 1.49941e-010 2.15559e-012
122
root  -60.2971 40.5924 12.4846 177.859 -6.15309 177.979
RightUpLeg  -2.01375 -28.1394 -5.79146
RightLeg  12.1161 -16.0846 0.733625
RightFoot  -8.16081 -0.0156656 -1.38579
RightToes  5.47152e-009 0 -3.6325e-017
Spine  0.47866 -1.32928 1.51938
Spine1  14.6554 -0.564467 -3.42529
HEad  4.64967 -5.20328 0.981002
LeftShoulder1  0.0338744 3.40296 -27.7125
LeftArm  -11.5956 9.22309 -42.7457
LeftForeArm  63.5319 -78.9749 -81.8428
LeftHand  0.0170159 4.14146 -3.78653
RightShoulder  -0.873605 -5.94569 29.1968
RightArm  -19.968 -13.887 37.2023
RightForeArm  100.064 75.1162 130.484
RightHand  -0.00996115 -3.91351 0.974091
LeftUpLeg  5.60702 10.8903 4.24973
LeftLeg  6.94282 35.015 0.503816
LeftFoot  -4.16017 0.22577 -3.19428
LeftToes  -4.29285e-010 1.49941e-010 2.15559e-012
123
root  -60.1746 40.6184 12.3227 177.168 -2.12755 178.654
RightUpLeg  -1.29729 -20.6214 -4.78913
RightLeg  10.8576 -19.8628 1.7544
RightFoot  -6.37835 0.0533634 -2.24486
RightToes  5.47152e-009 0 -3.6325e-017
Spine  1.58459 -1.5256 2.98397
Spine1  14.433 -0.804223 -2.92239
HEad  3.83091 -7.0848 0.563872
LeftShoulder1  -0.0415573 3.62435 -28.4499
LeftArm  -11.7654 8.93483 -42.2508
LeftForeArm  62.831 -78.9577 -80.9047
LeftHand  -0.00179594 4.66688 -4.49828
RightShoulder  -0.840781 -5.87443 28.8768
RightArm  -19.6814 -13.2845 37.2928
RightForeArm  99.3462 75.1306 130.293
RightHand  -0.0107449 -4.18154 1.45901
LeftUpLeg  6.77566 12.2619 5.68755
LeftLeg  8.20131 37.3312 1.14803
LeftFoot  -4.43942 0.27101 -4.07229
LeftToes  -4.29285e-010 1.49941e-010 2.15559e-012
124
root  -60.0137 40.5118 12.1533 176.805 2.08154 179.628
RightUpLeg  -1.65602 -16.2786 -2.67337
RightLeg  11.3027 -20.0703 1.08553
RightFoot  -6.16995 0.0783164 -2.67317
RightToes  5.47152e-009 0 -3.6325e-017
Spine  2.60027 -1.54349 4.19492
Spine1  14.1231 -1.01697 -1.89783
HEad  2.71762 -9.66524 -0.275537
LeftShoulder1  -0.0070936 3.52427 -28.5267
LeftArm  -12.2179 9.38175 -42.5689
LeftForeArm  62.3753 -78.9421 -80.4939
LeftHand  0.0158294 4.24169 -4.22672
RightShoulder  -0.780224 -5.73789 28.2205
RightArm  -19.1541 -12.9369 37.8132
RightForeArm  98.638 75.0967 130.284
RightHand  -0.0259682 -3.95008 -0.460048
LeftUpLeg  6.33509 18.6819 7.95629
LeftLeg  12.9641 32.7096 4.51624
LeftFoot  -5.47051 0.28985 -4.97073
LeftToes  -4.29285e-010 1.49941e-010 2.15559e-012
125
root  -59.8595 40.316 11.9627 177.14 5.67847 -179.596
RightUpLeg  -3.04992 -14.3245 -0.992858
RightLeg  13.2909 -18.6796 0.395748
RightFoot  -6.99652 0.082884 -3.42078
RightToes  5.47152e-009 0 -3.6325e-017
Spine  2.20782 -1.79532 4.90377
Spine1  14.8981 -1.58346 -0.347954
HEad  1.78836 -11.5253 0.641719
LeftShoulder1  -0.00315817 3.51236 -28.6448
LeftArm  -13.0986 9.59065 -42.7009
LeftForeArm  65.2409 -79.0243 -83.1892
LeftHand  0.0211922 4.34488 -4.64907
RightShoulder  -0.518254 -5.03315 27.1287
RightArm  -19.2535 -12.5436 38.3827
RightForeArm  100.574 74.6588 132.247
RightHand  -0.0288897 -4.42144 -0.634632
LeftUpLeg  3.29573 26.6744 9.84524
LeftLeg  20.6326 20.7448 9.0524
LeftFoot  -6.25983 0.221403 -4.16012
LeftToes  -4.29285e-010 1.49941e-010 2.15559e-012
126
root  -59.7208 40.1436 11.7738 176.666 8.41031 -179.072
RightUpLeg  -2.84222 -13.5373 -0.386366
RightLeg  14.4941 -16.855 0.660842
RightFoot  -8.16192 0.0418089 -3.49546
RightToes  5.47152e-009 0 -3.6325e-017
Spine  3.34477 -2.24104 6.47195
Spine1  14.5232 -1.72386 -0.560423
HEad  1.48713 -14.8751 1.22435
LeftShoulder1  0.0740198 3.2862 -27.8415
LeftArm  -13.045 9.03302 -42.8833
LeftForeArm  64.9289 -79.0168 -82.8626
LeftHand  0.0172454 4.39434 -4.50682
RightShoulder  -0.583343 -5.21873 27.251
RightArm  -19.3441 -12.5255 38.3866
RightForeArm  101.15 74.293 133.598
RightHand  -0.0305145 -4.61405 -0.914867
LeftUpLeg  0.0895188 20.8357 10.2384
LeftLeg  29.7294 19.3434 11.8956
LeftFoot  -4.33797 0.177654 -2.58796
LeftToes  -4.29285e-010 1.49941e-010 2.15559e-012
